<svg width="25" height="24" viewBox="0 0 25 24" fill="none" xmlns="http://www.w3.org/2000/svg">
<mask id="mask0_2007_17" style="mask-type:alpha" maskUnits="userSpaceOnUse" x="0" y="0" width="25" height="24">
<rect x="0.5" width="24" height="24" fill="#D9D9D9"/>
</mask>
<g mask="url(#mask0_2007_17)">
<path d="M20.6 16.95C20.8833 17.1 21.1333 17.0667 21.35 16.85C21.5667 16.6333 21.6 16.3833 21.45 16.1L20 13.4L18.95 16.1L20.6 16.95ZM15.6 16H16.8L19.2 10.05C19.25 9.91667 19.2375 9.80417 19.1625 9.7125C19.0875 9.62083 19 9.55 18.9 9.5L16.9 8.7C16.75 8.65 16.6042 8.66667 16.4625 8.75C16.3208 8.83333 16.2333 8.95 16.2 9.1L15.6 16ZM8.2 16H9.4L8.8 9.1C8.76667 8.91667 8.67917 8.79167 8.5375 8.725C8.39583 8.65833 8.25 8.65 8.1 8.7L6.1 9.5C5.96667 9.55 5.87083 9.62083 5.8125 9.7125C5.75417 9.80417 5.75 9.91667 5.8 10.05L8.2 16ZM4.4 16.95L6.05 16.1L5 13.4L3.55 16.1C3.4 16.3833 3.43333 16.6333 3.65 16.85C3.86667 17.0667 4.11667 17.1 4.4 16.95ZM11.4 16H13.6L14.35 7.55C14.3833 7.4 14.3458 7.27083 14.2375 7.1625C14.1292 7.05417 14 7 13.85 7H11.15C11.0167 7 10.8958 7.05417 10.7875 7.1625C10.6792 7.27083 10.6333 7.4 10.65 7.55L11.4 16ZM3.95 19C3.25 19 2.66667 18.7375 2.2 18.2125C1.73333 17.6875 1.5 17.0667 1.5 16.35C1.5 16.15 1.52917 15.9542 1.5875 15.7625C1.64583 15.5708 1.71667 15.3833 1.8 15.2L4 11C3.76667 10.3333 3.775 9.675 4.025 9.025C4.275 8.375 4.71667 7.91667 5.35 7.65L7.35 6.85C7.58333 6.76667 7.81667 6.70833 8.05 6.675C8.28333 6.64167 8.51667 6.65 8.75 6.7C8.98333 6.21667 9.30833 5.8125 9.725 5.4875C10.1417 5.1625 10.6167 5 11.15 5H13.85C14.3833 5 14.8583 5.1625 15.275 5.4875C15.6917 5.8125 16.0167 6.21667 16.25 6.7C16.4833 6.66667 16.7167 6.6625 16.95 6.6875C17.1833 6.7125 17.4167 6.76667 17.65 6.85L19.65 7.65C20.3167 7.91667 20.7833 8.375 21.05 9.025C21.3167 9.675 21.3 10.3167 21 10.95L23.2 15.15C23.3 15.3333 23.375 15.525 23.425 15.725C23.475 15.925 23.5 16.1333 23.5 16.35C23.5 17.1 23.2458 17.7292 22.7375 18.2375C22.2292 18.7458 21.6 19 20.85 19C20.6667 19 20.4833 18.9792 20.3 18.9375C20.1167 18.8958 19.9333 18.8333 19.75 18.75L18.2 18H6.75L5.35 18.75C5.13333 18.8667 4.90417 18.9375 4.6625 18.9625C4.42083 18.9875 4.18333 19 3.95 19Z" fill="white"/>
</g>
</svg>
