<svg width="24" height="25" viewBox="0 0 24 25" fill="none" xmlns="http://www.w3.org/2000/svg">
<mask id="mask0_2001_406" style="mask-type:alpha" maskUnits="userSpaceOnUse" x="0" y="0" width="24" height="25">
<rect y="0.5" width="24" height="24" fill="#D9D9D9"/>
</mask>
<g mask="url(#mask0_2001_406)">
<path d="M6 21.5C5.45 21.5 4.97917 21.3042 4.5875 20.9125C4.19583 20.5208 4 20.05 4 19.5V10.95C3.38333 10.5833 2.89583 10.0958 2.5375 9.4875C2.17917 8.87917 2 8.21667 2 7.5C2 6.4 2.39167 5.45833 3.175 4.675C3.95833 3.89167 4.9 3.5 6 3.5H18C19.1 3.5 20.0417 3.89167 20.825 4.675C21.6083 5.45833 22 6.4 22 7.5C22 8.21667 21.8208 8.87917 21.4625 9.4875C21.1042 10.0958 20.6167 10.5833 20 10.95V19.5C20 20.05 19.8042 20.5208 19.4125 20.9125C19.0208 21.3042 18.55 21.5 18 21.5H6ZM6 19.5H18V9.8L19 9.2C19.3 9.01667 19.5417 8.775 19.725 8.475C19.9083 8.175 20 7.85 20 7.5C20 6.95 19.8042 6.47917 19.4125 6.0875C19.0208 5.69583 18.55 5.5 18 5.5H6C5.45 5.5 4.97917 5.69583 4.5875 6.0875C4.19583 6.47917 4 6.95 4 7.5C4 7.86667 4.0875 8.20417 4.2625 8.5125C4.4375 8.82083 4.68333 9.06667 5 9.25L6 9.8V19.5ZM11.3 17.2C11.5 17.3833 11.7375 17.475 12.0125 17.475C12.2875 17.475 12.5167 17.3833 12.7 17.2L15.7 14.2C15.9 14 16 13.7625 16 13.4875C16 13.2125 15.9 12.9833 15.7 12.8L12.7 9.8C12.5167 9.6 12.2875 9.5 12.0125 9.5C11.7375 9.5 11.5 9.6 11.3 9.8L8.3 12.8C8.11667 12.9833 8.025 13.2125 8.025 13.4875C8.025 13.7625 8.11667 14 8.3 14.2L11.3 17.2ZM12 15.1L10.4 13.5L12 11.9L13.6 13.5L12 15.1Z" fill="white"/>
</g>
</svg>
