<svg width="24" height="25" viewBox="0 0 24 25" fill="none" xmlns="http://www.w3.org/2000/svg">
<mask id="mask0_2001_409" style="mask-type:alpha" maskUnits="userSpaceOnUse" x="0" y="0" width="24" height="25">
<rect y="0.5" width="24" height="24" fill="#D9D9D9"/>
</mask>
<g mask="url(#mask0_2001_409)">
<path d="M12 11.5C11.7167 11.5 11.4792 11.4042 11.2875 11.2125C11.0958 11.0208 11 10.7833 11 10.5C11 10.2167 11.0958 9.97917 11.2875 9.7875C11.4792 9.59583 11.7167 9.5 12 9.5C12.2833 9.5 12.5208 9.59583 12.7125 9.7875C12.9042 9.97917 13 10.2167 13 10.5C13 10.7833 12.9042 11.0208 12.7125 11.2125C12.5208 11.4042 12.2833 11.5 12 11.5ZM16 11.5C15.7167 11.5 15.4792 11.4042 15.2875 11.2125C15.0958 11.0208 15 10.7833 15 10.5C15 10.2167 15.0958 9.97917 15.2875 9.7875C15.4792 9.59583 15.7167 9.5 16 9.5C16.2833 9.5 16.5208 9.59583 16.7125 9.7875C16.9042 9.97917 17 10.2167 17 10.5C17 10.7833 16.9042 11.0208 16.7125 11.2125C16.5208 11.4042 16.2833 11.5 16 11.5ZM20 11.5C19.7167 11.5 19.4792 11.4042 19.2875 11.2125C19.0958 11.0208 19 10.7833 19 10.5C19 10.2167 19.0958 9.97917 19.2875 9.7875C19.4792 9.59583 19.7167 9.5 20 9.5C20.2833 9.5 20.5208 9.59583 20.7125 9.7875C20.9042 9.97917 21 10.2167 21 10.5C21 10.7833 20.9042 11.0208 20.7125 11.2125C20.5208 11.4042 20.2833 11.5 20 11.5ZM19.95 21.5C17.8667 21.5 15.8083 21.0458 13.775 20.1375C11.7417 19.2292 9.89167 17.9417 8.225 16.275C6.55833 14.6083 5.27083 12.7583 4.3625 10.725C3.45417 8.69167 3 6.63333 3 4.55C3 4.25 3.1 4 3.3 3.8C3.5 3.6 3.75 3.5 4.05 3.5H8.1C8.33333 3.5 8.54167 3.57917 8.725 3.7375C8.90833 3.89583 9.01667 4.08333 9.05 4.3L9.7 7.8C9.73333 8.06667 9.725 8.29167 9.675 8.475C9.625 8.65833 9.53333 8.81667 9.4 8.95L6.975 11.4C7.30833 12.0167 7.70417 12.6125 8.1625 13.1875C8.62083 13.7625 9.125 14.3167 9.675 14.85C10.1917 15.3667 10.7333 15.8458 11.3 16.2875C11.8667 16.7292 12.4667 17.1333 13.1 17.5L15.45 15.15C15.6 15 15.7958 14.8875 16.0375 14.8125C16.2792 14.7375 16.5167 14.7167 16.75 14.75L20.2 15.45C20.4333 15.5167 20.625 15.6375 20.775 15.8125C20.925 15.9875 21 16.1833 21 16.4V20.45C21 20.75 20.9 21 20.7 21.2C20.5 21.4 20.25 21.5 19.95 21.5ZM6.05 9.5L7.7 7.85L7.25 5.5H5.05C5.13333 6.18333 5.25 6.85833 5.4 7.525C5.55 8.19167 5.76667 8.85 6.05 9.5ZM15 18.405C15.65 18.685 16.3097 18.9156 16.9792 19.0968C17.6488 19.2779 18.3223 19.3957 19 19.45V17.25L16.65 16.75L15 18.405ZM6.05 9.5C5.76667 8.85 5.55 8.19167 5.4 7.525C5.25 6.85833 5.13333 6.18333 5.05 5.5H7.25L7.7 7.85L6.05 9.5ZM15 18.4L16.65 16.75L19 17.25V19.45C18.3167 19.4 17.6417 19.2833 16.975 19.1C16.3083 18.9167 15.65 18.6833 15 18.4Z" fill="white"/>
</g>
</svg>
